<?xml version="1.0" encoding="UTF-8" standalone="no"?>
<!DOCTYPE svg PUBLIC "-//W3C//DTD SVG 1.1//EN" "http://www.w3.org/Graphics/SVG/1.1/DTD/svg11.dtd">
<!-- Generiert durch Microsoft Visio, SVG Export ex2_graph.svg Zeichenblatt-1 -->
<svg xmlns="http://www.w3.org/2000/svg" xmlns:xlink="http://www.w3.org/1999/xlink" xmlns:ev="http://www.w3.org/2001/xml-events"
		xmlns:v="http://schemas.microsoft.com/visio/2003/SVGExtensions/" width="5.64409in" height="6.74008in"
		viewBox="0 0 406.374 485.286" xml:space="preserve" color-interpolation-filters="sRGB" class="st8">
	<v:documentProperties v:langID="2055" v:metric="true" v:viewMarkup="false"/>

	<style type="text/css">
	<![CDATA[
		.st1 {fill:#ffffff;stroke:#000000;stroke-linecap:round;stroke-linejoin:round;stroke-width:1.5}
		.st2 {fill:#000000;font-family:Calibri;font-size:1.00001em;font-weight:bold}
		.st3 {fill:none;stroke:none;stroke-linecap:round;stroke-linejoin:round;stroke-width:1.5}
		.st4 {stroke:#000000;stroke-linecap:round;stroke-linejoin:round;stroke-width:1.5}
		.st5 {stroke:#000000;stroke-dasharray:1.5,3;stroke-linecap:round;stroke-linejoin:round;stroke-width:1.5}
		.st6 {fill:#4bacc6;stroke:#000000;stroke-linecap:round;stroke-linejoin:round;stroke-width:1.5}
		.st7 {fill:#31859b;fill-opacity:0.26;stroke:#000000;stroke-linecap:round;stroke-linejoin:round;stroke-width:0.75}
		.st8 {fill:none;fill-rule:evenodd;font-size:12px;overflow:visible;stroke-linecap:square;stroke-miterlimit:3}
	]]>
	</style>

	<g v:mID="0" v:index="1" v:groupContext="foregroundPage">
		<title>Zeichenblatt-1</title>
		<v:pageProperties v:drawingScale="0.0393701" v:pageScale="0.0393701" v:drawingUnits="24" v:shadowOffsetX="8.50394"
				v:shadowOffsetY="-8.50394"/>
		<v:layer v:name="Connector" v:index="0"/>
		<g id="group924-1" transform="translate(67.6979,-0.75)" v:mID="924" v:groupContext="group">
			<title>Tabelle.924</title>
			<g id="group843-2" transform="translate(155.906,-117.709)" v:mID="843" v:groupContext="group">
				<title>Tabelle.843</title>
				<g id="shape844-3" v:mID="844" v:groupContext="shape">
					<title>Kreis.3</title>
					<desc>J</desc>
					<v:userDefs>
						<v:ud v:nameU="visVersion" v:val="VT0(15):26"/>
					</v:userDefs>
					<v:textBlock v:margins="rect(4,4,4,4)" v:tabSpace="42.5197"/>
					<v:textRect cx="9.85039" cy="475.436" width="17.24" height="14.7756"/>
					<path d="M0 475.44 A9.85039 9.85039 0 1 1 19.7 475.44 A9.85039 9.85039 0 0 1 0 475.44 Z" class="st1"/>
					<text x="7.86" y="479.04" class="st2" v:langID="2055"><v:paragraph v:horizAlign="1"/><v:tabList/>J</text>				</g>
			</g>
			<g id="group845-6" transform="translate(92.126,-32.649)" v:mID="845" v:groupContext="group">
				<title>Tabelle.845</title>
				<g id="shape846-7" v:mID="846" v:groupContext="shape" transform="translate(4.32284,-4.32284)">
					<title>Kreis.3</title>
					<v:userDefs>
						<v:ud v:nameU="visVersion" v:val="VT0(15):26"/>
					</v:userDefs>
					<path d="M0 475.44 A9.85039 9.85039 0 1 1 19.7 475.44 A9.85039 9.85039 0 0 1 0 475.44 Z" class="st1"/>
				</g>
				<g id="group847-9" v:mID="847" v:groupContext="group">
					<title>Tabelle.847</title>
					<g id="shape848-10" v:mID="848" v:groupContext="shape">
						<title>Kreis.18</title>
						<desc>Fs</desc>
						<v:textBlock v:margins="rect(4,4,4,4)" v:tabSpace="42.5197"/>
						<v:textRect cx="14.1732" cy="471.113" width="28.35" height="28.3465"/>
						<rect x="0" y="456.94" width="28.3465" height="28.3465" class="st3"/>
						<text x="9.03" y="474.71" class="st2" v:langID="2055"><v:paragraph v:horizAlign="1"/><v:tabList/>Fs</text>					</g>
				</g>
			</g>
			<g id="shape854-13" v:mID="854" v:groupContext="shape" v:layerMember="0" transform="translate(219.685,-85.0394)">
				<title>Dynamic connector.854</title>
				<path d="M0 485.29 L0 523.5 L-51.57 523.5 A2.3622 2.3622 -180 0 0 -56.29 523.5 L-103.54 523.5" class="st4"/>
			</g>
			<g id="shape858-16" v:mID="858" v:groupContext="shape" v:layerMember="0" transform="translate(155.906,-127.559)">
				<title>Dynamic connector.858</title>
				<path d="M0 485.29 L-141.73 485.29 L-141.73 510.87" class="st4"/>
			</g>
			<g id="shape860-19" v:mID="860" v:groupContext="shape" v:layerMember="0" transform="translate(175.606,-127.559)">
				<title>Dynamic connector.860</title>
				<path d="M0 485.29 L44.08 485.29 L44.08 508.1" class="st4"/>
			</g>
			<g id="group869-22" transform="translate(30.5079,-4.32284)" v:mID="869" v:groupContext="group">
				<title>Tabelle.869</title>
				<g id="shape870-23" v:mID="870" v:groupContext="shape">
					<title>Kreis.3</title>
					<desc>J</desc>
					<v:userDefs>
						<v:ud v:nameU="visVersion" v:val="VT0(15):26"/>
					</v:userDefs>
					<v:textBlock v:margins="rect(4,4,4,4)" v:tabSpace="42.5197"/>
					<v:textRect cx="9.85039" cy="475.436" width="17.24" height="14.7756"/>
					<path d="M0 475.44 A9.85039 9.85039 0 1 1 19.7 475.44 A9.85039 9.85039 0 0 1 0 475.44 Z" class="st1"/>
					<text x="7.86" y="479.04" class="st2" v:langID="2055"><v:paragraph v:horizAlign="1"/><v:tabList/>J</text>				</g>
			</g>
			<g id="group871-26" transform="translate(54.5315,-3.75107E-07)" v:mID="871" v:groupContext="group">
				<title>Tabelle.871</title>
				<g id="group872-27" v:mID="872" v:groupContext="group">
					<title>Tabelle.872</title>
					<g id="shape873-28" v:mID="873" v:groupContext="shape" transform="translate(4.32284,-4.32284)">
						<title>Kreis.3</title>
						<v:userDefs>
							<v:ud v:nameU="visVersion" v:val="VT0(15):26"/>
						</v:userDefs>
						<path d="M0 475.44 A9.85039 9.85039 0 1 1 19.7 475.44 A9.85039 9.85039 0 0 1 0 475.44 Z" class="st1"/>
					</g>
					<g id="group874-30" v:mID="874" v:groupContext="group">
						<title>Tabelle.874</title>
						<g id="shape875-31" v:mID="875" v:groupContext="shape">
							<title>Kreis.18</title>
							<desc>V2</desc>
							<v:textBlock v:margins="rect(4,4,4,4)" v:tabSpace="42.5197"/>
							<v:textRect cx="14.1732" cy="471.113" width="28.35" height="28.3465"/>
							<rect x="0" y="456.94" width="28.3465" height="28.3465" class="st3"/>
							<text x="7.58" y="474.71" class="st2" v:langID="2055"><v:paragraph v:horizAlign="1"/><v:tabList/>V2</text>						</g>
					</g>
				</g>
				<g id="group876-34" transform="translate(0,-32.6693)" v:mID="876" v:groupContext="group">
					<title>Tabelle.876</title>
					<g id="shape877-35" v:mID="877" v:groupContext="shape" transform="translate(4.32284,-4.32284)">
						<title>Kreis.3</title>
						<v:userDefs>
							<v:ud v:nameU="visVersion" v:val="VT0(15):26"/>
						</v:userDefs>
						<path d="M0 475.44 A9.85039 9.85039 0 1 1 19.7 475.44 A9.85039 9.85039 0 0 1 0 475.44 Z" class="st1"/>
					</g>
					<g id="group878-37" v:mID="878" v:groupContext="group">
						<title>Tabelle.878</title>
						<g id="shape879-38" v:mID="879" v:groupContext="shape">
							<title>Kreis.18</title>
							<desc>V1</desc>
							<v:textBlock v:margins="rect(4,4,4,4)" v:tabSpace="42.5197"/>
							<v:textRect cx="14.1732" cy="471.113" width="28.35" height="28.3465"/>
							<rect x="0" y="456.94" width="28.3465" height="28.3465" class="st3"/>
							<text x="7.58" y="474.71" class="st2" v:langID="2055"><v:paragraph v:horizAlign="1"/><v:tabList/>V1</text>						</g>
					</g>
				</g>
				<g id="shape880-41" v:mID="880" v:groupContext="shape" transform="translate(499.459,448.294) rotate(90)">
					<title>Tabelle.880</title>
					<path d="M0 485.29 L12.97 485.29" class="st5"/>
				</g>
			</g>
			<g id="shape881-44" v:mID="881" v:groupContext="shape" v:layerMember="0" transform="translate(14.1732,-82.2756)">
				<title>Dynamic connector.881</title>
				<path d="M0 485.29 L0 553.39 L16.33 553.39" class="st4"/>
			</g>
			<g id="shape882-47" v:mID="882" v:groupContext="shape" v:layerMember="0" transform="translate(47.4449,-7.08662)">
				<title>Dynamic connector.882</title>
				<path d="M2.76 478.2 L11.41 478.2" class="st4"/>
			</g>
			<g id="shape884-50" v:mID="884" v:groupContext="shape" v:layerMember="0" transform="translate(40.3583,-24.0236)">
				<title>Dynamic connector.884</title>
				<path d="M0 485.29 L0 462.47 L18.5 462.47" class="st4"/>
			</g>
			<g id="shape885-53" v:mID="885" v:groupContext="shape" v:layerMember="0" transform="translate(78.5551,-53.919)">
				<title>Dynamic connector.885</title>
				<path d="M0 492.36 L17.89 492.38" class="st4"/>
			</g>
			<g id="shape886-56" v:mID="886" v:groupContext="shape" v:layerMember="0" transform="translate(78.5551,-21.2598)">
				<title>Dynamic connector.886</title>
				<path d="M0 492.37 L17.89 492.37" class="st4"/>
			</g>
			<g id="shape887-59" v:mID="887" v:groupContext="shape" v:layerMember="0" transform="translate(116.15,-14.1732)">
				<title>Dynamic connector.887</title>
				<path d="M0 485.29 L49.61 485.29 L49.61 381.75" class="st4"/>
			</g>
			<g id="group911-62" transform="translate(205.512,-80.7165)" v:mID="911" v:groupContext="group">
				<title>Tabelle.911</title>
				<g id="shape912-63" v:mID="912" v:groupContext="shape" transform="translate(4.32284,-4.32284)">
					<title>Kreis.3</title>
					<v:userDefs>
						<v:ud v:nameU="visVersion" v:val="VT0(15):26"/>
					</v:userDefs>
					<path d="M0 475.44 A9.85039 9.85039 0 1 1 19.7 475.44 A9.85039 9.85039 0 0 1 0 475.44 Z" class="st6"/>
				</g>
				<g id="group913-65" v:mID="913" v:groupContext="group">
					<title>Tabelle.913</title>
					<g id="shape914-66" v:mID="914" v:groupContext="shape">
						<title>Kreis.18</title>
						<desc>Cm</desc>
						<v:textBlock v:margins="rect(4,4,4,4)" v:tabSpace="42.5197"/>
						<v:textRect cx="14.1732" cy="471.113" width="28.35" height="28.3465"/>
						<rect x="0" y="456.94" width="28.3465" height="28.3465" class="st3"/>
						<text x="6.12" y="474.71" class="st2" v:langID="2055"><v:paragraph v:horizAlign="1"/><v:tabList/>Cm</text>					</g>
				</g>
			</g>
			<g id="group915-69" transform="translate(-6.59472E-14,-77.9528)" v:mID="915" v:groupContext="group">
				<title>Tabelle.915</title>
				<g id="shape916-70" v:mID="916" v:groupContext="shape" transform="translate(4.32284,-4.32284)">
					<title>Kreis.3</title>
					<v:userDefs>
						<v:ud v:nameU="visVersion" v:val="VT0(15):26"/>
					</v:userDefs>
					<path d="M0 475.44 A9.85039 9.85039 0 1 1 19.7 475.44 A9.85039 9.85039 0 0 1 0 475.44 Z" class="st6"/>
				</g>
				<g id="group917-72" v:mID="917" v:groupContext="group">
					<title>Tabelle.917</title>
					<g id="shape918-73" v:mID="918" v:groupContext="shape">
						<title>Kreis.18</title>
						<desc>Gp</desc>
						<v:textBlock v:margins="rect(4,4,4,4)" v:tabSpace="42.5197"/>
						<v:textRect cx="14.1732" cy="471.113" width="28.35" height="28.3465"/>
						<rect x="0" y="456.94" width="28.3465" height="28.3465" class="st3"/>
						<text x="7.13" y="474.71" class="st2" v:langID="2055"><v:paragraph v:horizAlign="1"/><v:tabList/>Gp</text>					</g>
				</g>
			</g>
			<g id="group919-76" transform="translate(92.126,5.11591E-13)" v:mID="919" v:groupContext="group">
				<title>Tabelle.919</title>
				<g id="shape920-77" v:mID="920" v:groupContext="shape" transform="translate(4.32284,-4.32284)">
					<title>Kreis.3</title>
					<v:userDefs>
						<v:ud v:nameU="visVersion" v:val="VT0(15):26"/>
					</v:userDefs>
					<path d="M0 475.44 A9.85039 9.85039 0 1 1 19.7 475.44 A9.85039 9.85039 0 0 1 0 475.44 Z" class="st6"/>
				</g>
				<g id="group921-79" v:mID="921" v:groupContext="group">
					<title>Tabelle.921</title>
					<g id="shape922-80" v:mID="922" v:groupContext="shape">
						<title>Kreis.18</title>
						<desc>Sh</desc>
						<v:textBlock v:margins="rect(4,4,4,4)" v:tabSpace="42.5197"/>
						<v:textRect cx="14.1732" cy="471.113" width="28.35" height="28.3465"/>
						<rect x="0" y="456.94" width="28.3465" height="28.3465" class="st3"/>
						<text x="8.12" y="474.71" class="st2" v:langID="2055"><v:paragraph v:horizAlign="1"/><v:tabList/>Sh</text>					</g>
				</g>
			</g>
		</g>
		<g id="group1113-83" transform="translate(0.375,-192.018)" v:mID="1113" v:groupContext="group">
			<title>Tabelle.1113</title>
			<g id="group986-84" v:mID="986" v:groupContext="group">
				<title>Tabelle.986</title>
				<g id="group987-85" transform="translate(239.188,-11.1802)" v:mID="987" v:groupContext="group">
					<title>Tabelle.987</title>
					<g id="shape988-86" v:mID="988" v:groupContext="shape" transform="translate(4.32284,-4.32284)">
						<title>Kreis.3</title>
						<v:userDefs>
							<v:ud v:nameU="visVersion" v:val="VT0(15):26"/>
						</v:userDefs>
						<path d="M0 475.44 A9.85039 9.85039 0 1 1 19.7 475.44 A9.85039 9.85039 0 0 1 0 475.44 Z" class="st1"/>
					</g>
					<g id="group989-88" v:mID="989" v:groupContext="group">
						<title>Tabelle.989</title>
						<g id="shape990-89" v:mID="990" v:groupContext="shape">
							<title>Kreis.18</title>
							<desc>P</desc>
							<v:textBlock v:margins="rect(4,4,4,4)" v:tabSpace="42.5197"/>
							<v:textRect cx="14.1732" cy="471.113" width="28.35" height="28.3465"/>
							<rect x="0" y="456.94" width="28.3465" height="28.3465" class="st3"/>
							<text x="10.98" y="474.71" class="st2" v:langID="2055"><v:paragraph v:horizAlign="1"/><v:tabList/>P</text>						</g>
					</g>
				</g>
				<g id="group991-92" transform="translate(327.665,-249.29)" v:mID="991" v:groupContext="group">
					<title>Tabelle.991</title>
					<g id="shape992-93" v:mID="992" v:groupContext="shape" transform="translate(4.32284,-4.32284)">
						<title>Kreis.3</title>
						<v:userDefs>
							<v:ud v:nameU="visVersion" v:val="VT0(15):26"/>
						</v:userDefs>
						<path d="M0 475.44 A9.85039 9.85039 0 1 1 19.7 475.44 A9.85039 9.85039 0 0 1 0 475.44 Z" class="st1"/>
					</g>
					<g id="group993-95" v:mID="993" v:groupContext="group">
						<title>Tabelle.993</title>
						<g id="shape994-96" v:mID="994" v:groupContext="shape">
							<title>Kreis.18</title>
							<desc>P</desc>
							<v:textBlock v:margins="rect(4,4,4,4)" v:tabSpace="42.5197"/>
							<v:textRect cx="14.1732" cy="471.113" width="28.35" height="28.3465"/>
							<rect x="0" y="456.94" width="28.3465" height="28.3465" class="st3"/>
							<text x="10.98" y="474.71" class="st2" v:langID="2055"><v:paragraph v:horizAlign="1"/><v:tabList/>P</text>						</g>
					</g>
				</g>
				<g id="group995-99" transform="translate(58.0292,-110.605)" v:mID="995" v:groupContext="group">
					<title>Tabelle.995</title>
					<g id="shape996-100" v:mID="996" v:groupContext="shape" transform="translate(4.32284,-4.32284)">
						<title>Kreis.3</title>
						<v:userDefs>
							<v:ud v:nameU="visVersion" v:val="VT0(15):26"/>
						</v:userDefs>
						<path d="M0 475.44 A9.85039 9.85039 0 1 1 19.7 475.44 A9.85039 9.85039 0 0 1 0 475.44 Z" class="st1"/>
					</g>
					<g id="group997-102" v:mID="997" v:groupContext="group">
						<title>Tabelle.997</title>
						<g id="shape998-103" v:mID="998" v:groupContext="shape">
							<title>Kreis.18</title>
							<desc>P</desc>
							<v:textBlock v:margins="rect(4,4,4,4)" v:tabSpace="42.5197"/>
							<v:textRect cx="14.1732" cy="471.113" width="28.35" height="28.3465"/>
							<rect x="0" y="456.94" width="28.3465" height="28.3465" class="st3"/>
							<text x="10.98" y="474.71" class="st2" v:langID="2055"><v:paragraph v:horizAlign="1"/><v:tabList/>P</text>						</g>
					</g>
				</g>
				<g id="group999-106" transform="translate(119.399,-249.361)" v:mID="999" v:groupContext="group">
					<title>Tabelle.999</title>
					<g id="shape1000-107" v:mID="1000" v:groupContext="shape" transform="translate(4.32284,-4.32284)">
						<title>Kreis.3</title>
						<v:userDefs>
							<v:ud v:nameU="visVersion" v:val="VT0(15):26"/>
						</v:userDefs>
						<path d="M0 475.44 A9.85039 9.85039 0 1 1 19.7 475.44 A9.85039 9.85039 0 0 1 0 475.44 Z" class="st1"/>
					</g>
					<g id="group1001-109" v:mID="1001" v:groupContext="group">
						<title>Tabelle.1001</title>
						<g id="shape1002-110" v:mID="1002" v:groupContext="shape">
							<title>Kreis.18</title>
							<desc>Ts</desc>
							<v:textBlock v:margins="rect(4,4,4,4)" v:tabSpace="42.5197"/>
							<v:textRect cx="14.1732" cy="471.113" width="28.35" height="28.3465"/>
							<rect x="0" y="456.94" width="28.3465" height="28.3465" class="st3"/>
							<text x="8.81" y="474.71" class="st2" v:langID="2055"><v:paragraph v:horizAlign="1"/><v:tabList/>Ts</text>						</g>
					</g>
				</g>
				<g id="group1003-113" transform="translate(367.742,-249.361)" v:mID="1003" v:groupContext="group">
					<title>Tabelle.1003</title>
					<g id="shape1004-114" v:mID="1004" v:groupContext="shape" transform="translate(4.32284,-4.32284)">
						<title>Kreis.3</title>
						<v:userDefs>
							<v:ud v:nameU="visVersion" v:val="VT0(15):26"/>
						</v:userDefs>
						<path d="M0 475.44 A9.85039 9.85039 0 1 1 19.7 475.44 A9.85039 9.85039 0 0 1 0 475.44 Z" class="st1"/>
					</g>
					<g id="group1005-116" v:mID="1005" v:groupContext="group">
						<title>Tabelle.1005</title>
						<g id="shape1006-117" v:mID="1006" v:groupContext="shape">
							<title>Kreis.18</title>
							<desc>Ts</desc>
							<v:textBlock v:margins="rect(4,4,4,4)" v:tabSpace="42.5197"/>
							<v:textRect cx="14.1732" cy="471.113" width="28.35" height="28.3465"/>
							<rect x="0" y="456.94" width="28.3465" height="28.3465" class="st3"/>
							<text x="8.81" y="474.71" class="st2" v:langID="2055"><v:paragraph v:horizAlign="1"/><v:tabList/>Ts</text>						</g>
					</g>
				</g>
				<g id="group1007-120" transform="translate(367.742,-192.668)" v:mID="1007" v:groupContext="group">
					<title>Tabelle.1007</title>
					<g id="shape1008-121" v:mID="1008" v:groupContext="shape" transform="translate(4.32284,-4.32284)">
						<title>Kreis.3</title>
						<v:userDefs>
							<v:ud v:nameU="visVersion" v:val="VT0(15):26"/>
						</v:userDefs>
						<path d="M0 475.44 A9.85039 9.85039 0 1 1 19.7 475.44 A9.85039 9.85039 0 0 1 0 475.44 Z" class="st1"/>
					</g>
					<g id="group1009-123" v:mID="1009" v:groupContext="group">
						<title>Tabelle.1009</title>
						<g id="shape1010-124" v:mID="1010" v:groupContext="shape">
							<title>Kreis.18</title>
							<desc>C</desc>
							<v:textBlock v:margins="rect(4,4,4,4)" v:tabSpace="42.5197"/>
							<v:textRect cx="14.1732" cy="471.113" width="28.35" height="28.3465"/>
							<rect x="0" y="456.94" width="28.3465" height="28.3465" class="st3"/>
							<text x="11" y="474.71" class="st2" v:langID="2055"><v:paragraph v:horizAlign="1"/><v:tabList/>C</text>						</g>
					</g>
				</g>
				<g id="group1011-127" transform="translate(201.604,-143.062)" v:mID="1011" v:groupContext="group">
					<title>Tabelle.1011</title>
					<g id="shape1012-128" v:mID="1012" v:groupContext="shape" transform="translate(4.32284,-4.32284)">
						<title>Kreis.3</title>
						<v:userDefs>
							<v:ud v:nameU="visVersion" v:val="VT0(15):26"/>
						</v:userDefs>
						<path d="M0 475.44 A9.85039 9.85039 0 1 1 19.7 475.44 A9.85039 9.85039 0 0 1 0 475.44 Z" class="st1"/>
					</g>
					<g id="group1013-130" v:mID="1013" v:groupContext="group">
						<title>Tabelle.1013</title>
						<g id="shape1014-131" v:mID="1014" v:groupContext="shape">
							<title>Kreis.18</title>
							<desc>Fs</desc>
							<v:textBlock v:margins="rect(4,4,4,4)" v:tabSpace="42.5197"/>
							<v:textRect cx="14.1732" cy="471.113" width="28.35" height="28.3465"/>
							<rect x="0" y="456.94" width="28.3465" height="28.3465" class="st3"/>
							<text x="9.03" y="474.71" class="st2" v:langID="2055"><v:paragraph v:horizAlign="1"/><v:tabList/>Fs</text>						</g>
					</g>
				</g>
				<g id="group1015-134" transform="translate(296.092,-253.684)" v:mID="1015" v:groupContext="group">
					<title>Tabelle.1015</title>
					<g id="shape1016-135" v:mID="1016" v:groupContext="shape">
						<title>Kreis.3</title>
						<desc>J</desc>
						<v:userDefs>
							<v:ud v:nameU="visVersion" v:val="VT0(15):26"/>
						</v:userDefs>
						<v:textBlock v:margins="rect(4,4,4,4)" v:tabSpace="42.5197"/>
						<v:textRect cx="9.85039" cy="475.436" width="17.24" height="14.7756"/>
						<path d="M0 475.44 A9.85039 9.85039 0 1 1 19.7 475.44 A9.85039 9.85039 0 0 1 0 475.44 Z" class="st1"/>
						<text x="7.86" y="479.04" class="st2" v:langID="2055"><v:paragraph v:horizAlign="1"/><v:tabList/>J</text>					</g>
				</g>
				<g id="group1017-138" transform="translate(13.1001,-192.668)" v:mID="1017" v:groupContext="group">
					<title>Tabelle.1017</title>
					<g id="shape1018-139" v:mID="1018" v:groupContext="shape" transform="translate(4.32284,-4.32284)">
						<title>Kreis.3</title>
						<v:userDefs>
							<v:ud v:nameU="visVersion" v:val="VT0(15):26"/>
						</v:userDefs>
						<path d="M0 475.44 A9.85039 9.85039 0 1 1 19.7 475.44 A9.85039 9.85039 0 0 1 0 475.44 Z" class="st1"/>
					</g>
					<g id="group1019-141" v:mID="1019" v:groupContext="group">
						<title>Tabelle.1019</title>
						<g id="shape1020-142" v:mID="1020" v:groupContext="shape">
							<title>Kreis.18</title>
							<desc>G</desc>
							<v:textBlock v:margins="rect(4,4,4,4)" v:tabSpace="42.5197"/>
							<v:textRect cx="14.1732" cy="471.113" width="28.35" height="28.3465"/>
							<rect x="0" y="456.94" width="28.3465" height="28.3465" class="st3"/>
							<text x="10.35" y="474.71" class="st2" v:langID="2055"><v:paragraph v:horizAlign="1"/><v:tabList/>G</text>						</g>
					</g>
				</g>
				<g id="shape1021-145" v:mID="1021" v:groupContext="shape" v:layerMember="0" transform="translate(27.2733,-216.692)">
					<title>Dynamic connector.747</title>
					<path d="M0 485.29 L0 438.44 L96.45 438.44" class="st4"/>
				</g>
				<g id="group1022-148" transform="translate(180.415,-253.684)" v:mID="1022" v:groupContext="group">
					<title>Tabelle.1022</title>
					<g id="shape1023-149" v:mID="1023" v:groupContext="shape">
						<title>Kreis.3</title>
						<desc>J</desc>
						<v:userDefs>
							<v:ud v:nameU="visVersion" v:val="VT0(15):26"/>
						</v:userDefs>
						<v:textBlock v:margins="rect(4,4,4,4)" v:tabSpace="42.5197"/>
						<v:textRect cx="9.85039" cy="475.436" width="17.24" height="14.7756"/>
						<path d="M0 475.44 A9.85039 9.85039 0 1 1 19.7 475.44 A9.85039 9.85039 0 0 1 0 475.44 Z" class="st1"/>
						<text x="7.86" y="479.04" class="st2" v:langID="2055"><v:paragraph v:horizAlign="1"/><v:tabList/>J</text>					</g>
				</g>
				<g id="shape1024-152" v:mID="1024" v:groupContext="shape" v:layerMember="0" transform="translate(143.423,-270.621)">
					<title>Dynamic connector.750</title>
					<path d="M0 492.37 L36.99 492.37" class="st4"/>
				</g>
				<g id="shape1025-155" v:mID="1025" v:groupContext="shape" v:layerMember="0" transform="translate(200.116,-270.621)">
					<title>Dynamic connector.751</title>
					<path d="M0 492.37 L60.15 492.37" class="st4"/>
				</g>
				<g id="shape1026-158" v:mID="1026" v:groupContext="shape" v:layerMember="0" transform="translate(279.968,-256.448)">
					<title>Dynamic connector.752</title>
					<path d="M0 478.2 L16.12 478.2" class="st4"/>
				</g>
				<g id="shape1027-161" v:mID="1027" v:groupContext="shape" v:layerMember="0" transform="translate(315.793,-270.586)">
					<title>Dynamic connector.753</title>
					<path d="M0 492.34 L16.2 492.41" class="st4"/>
				</g>
				<g id="shape1028-164" v:mID="1028" v:groupContext="shape" v:layerMember="0" transform="translate(351.689,-256.412)">
					<title>Dynamic connector.754</title>
					<path d="M0 478.23 L20.38 478.16" class="st4"/>
				</g>
				<g id="shape1029-167" v:mID="1029" v:groupContext="shape" v:layerMember="0" transform="translate(374.829,-253.684)">
					<title>Dynamic connector.755</title>
					<path d="M7.09 485.29 L7.09 522.28" class="st4"/>
				</g>
				<g id="group1030-170" transform="translate(255.944,-216.692)" v:mID="1030" v:groupContext="group">
					<title>Tabelle.1030</title>
					<g id="group1031-171" v:mID="1031" v:groupContext="group">
						<title>Tabelle.1031</title>
						<g id="shape1032-172" v:mID="1032" v:groupContext="shape" transform="translate(4.32284,-4.32284)">
							<title>Kreis.3</title>
							<v:userDefs>
								<v:ud v:nameU="visVersion" v:val="VT0(15):26"/>
							</v:userDefs>
							<path d="M0 475.44 A9.85039 9.85039 0 1 1 19.7 475.44 A9.85039 9.85039 0 0 1 0 475.44 Z" class="st1"/>
						</g>
						<g id="group1033-174" v:mID="1033" v:groupContext="group">
							<title>Tabelle.1033</title>
							<g id="shape1034-175" v:mID="1034" v:groupContext="shape">
								<title>Kreis.18</title>
								<desc>V2</desc>
								<v:textBlock v:margins="rect(4,4,4,4)" v:tabSpace="42.5197"/>
								<v:textRect cx="14.1732" cy="471.113" width="28.35" height="28.3465"/>
								<rect x="0" y="456.94" width="28.3465" height="28.3465" class="st3"/>
								<text x="7.58" y="474.71" class="st2" v:langID="2055"><v:paragraph v:horizAlign="1"/><v:tabList/>V2</text>							</g>
						</g>
					</g>
					<g id="group1035-178" transform="translate(0,-32.6693)" v:mID="1035" v:groupContext="group">
						<title>Tabelle.1035</title>
						<g id="shape1036-179" v:mID="1036" v:groupContext="shape" transform="translate(4.32284,-4.32284)">
							<title>Kreis.3</title>
							<v:userDefs>
								<v:ud v:nameU="visVersion" v:val="VT0(15):26"/>
							</v:userDefs>
							<path d="M0 475.44 A9.85039 9.85039 0 1 1 19.7 475.44 A9.85039 9.85039 0 0 1 0 475.44 Z" class="st1"/>
						</g>
						<g id="group1037-181" v:mID="1037" v:groupContext="group">
							<title>Tabelle.1037</title>
							<g id="shape1038-182" v:mID="1038" v:groupContext="shape">
								<title>Kreis.18</title>
								<desc>V1</desc>
								<v:textBlock v:margins="rect(4,4,4,4)" v:tabSpace="42.5197"/>
								<v:textRect cx="14.1732" cy="471.113" width="28.35" height="28.3465"/>
								<rect x="0" y="456.94" width="28.3465" height="28.3465" class="st3"/>
								<text x="7.58" y="474.71" class="st2" v:langID="2055"><v:paragraph v:horizAlign="1"/><v:tabList/>V1</text>							</g>
						</g>
					</g>
					<g id="shape1039-185" v:mID="1039" v:groupContext="shape" transform="translate(499.459,448.294) rotate(90)">
						<title>Tabelle.1039</title>
						<path d="M0 485.29 L12.97 485.29" class="st5"/>
					</g>
				</g>
				<g id="group1040-188" transform="translate(180.344,-143.062)" v:mID="1040" v:groupContext="group">
					<title>Tabelle.1040</title>
				</g>
				<g id="shape1041-189" v:mID="1041" v:groupContext="shape" v:layerMember="0" transform="translate(381.915,-196.991)">
					<title>Dynamic connector.767</title>
					<path d="M0 485.29 L0 525.04 L-123.62 525.04" class="st4"/>
				</g>
				<g id="shape1042-192" v:mID="1042" v:groupContext="shape" v:layerMember="0" transform="translate(239.199,-150.149)">
					<title>Dynamic connector.768</title>
					<path d="M-0.6 478.2 L-13.57 478.2" class="st4"/>
				</g>
				<g id="shape1043-195" v:mID="1043" v:groupContext="shape" v:layerMember="0" transform="translate(205.927,-164.322)">
					<title>Dynamic connector.769</title>
					<path d="M0 492.37 L-13.3 492.37 A2.3622 2.3622 -180 1 0 -18.02 492.37 L-64.67 492.37" class="st4"/>
				</g>
				<g id="group1044-198" transform="translate(238.596,-147.385)" v:mID="1044" v:groupContext="group">
					<title>Tabelle.1044</title>
					<g id="shape1045-199" v:mID="1045" v:groupContext="shape">
						<title>Kreis.3</title>
						<desc>J</desc>
						<v:userDefs>
							<v:ud v:nameU="visVersion" v:val="VT0(15):26"/>
						</v:userDefs>
						<v:textBlock v:margins="rect(4,4,4,4)" v:tabSpace="42.5197"/>
						<v:textRect cx="9.85039" cy="475.436" width="17.24" height="14.7756"/>
						<path d="M0 475.44 A9.85039 9.85039 0 1 1 19.7 475.44 A9.85039 9.85039 0 0 1 0 475.44 Z" class="st1"/>
						<text x="7.86" y="479.04" class="st2" v:langID="2055"><v:paragraph v:horizAlign="1"/><v:tabList/>J</text>					</g>
				</g>
				<g id="group1046-202" transform="translate(93.2143,-114.716)" v:mID="1046" v:groupContext="group">
					<title>Tabelle.1046</title>
					<g id="shape1047-203" v:mID="1047" v:groupContext="shape">
						<title>Kreis.3</title>
						<desc>J</desc>
						<v:userDefs>
							<v:ud v:nameU="visVersion" v:val="VT0(15):26"/>
						</v:userDefs>
						<v:textBlock v:margins="rect(4,4,4,4)" v:tabSpace="42.5197"/>
						<v:textRect cx="9.85039" cy="475.436" width="17.24" height="14.7756"/>
						<path d="M0 475.44 A9.85039 9.85039 0 1 1 19.7 475.44 A9.85039 9.85039 0 0 1 0 475.44 Z" class="st1"/>
						<text x="7.86" y="479.04" class="st2" v:langID="2055"><v:paragraph v:horizAlign="1"/><v:tabList/>J</text>					</g>
				</g>
				<g id="shape1048-206" v:mID="1048" v:groupContext="shape" v:layerMember="0" transform="translate(124.324,-117.479)">
					<title>Dynamic connector.774</title>
					<path d="M-2.76 478.2 L-11.41 478.2" class="st4"/>
				</g>
				<g id="shape1049-209" v:mID="1049" v:groupContext="shape" v:layerMember="0" transform="translate(121.561,-157.235)">
					<title>Dynamic connector.775</title>
					<path d="M0 485.29 L-18.5 485.29 L-18.5 508.1" class="st4"/>
				</g>
				<g id="shape1050-212" v:mID="1050" v:groupContext="shape" v:layerMember="0" transform="translate(94.7202,-117.586)">
					<title>Dynamic connector.776</title>
					<path d="M-1.51 478.31 L-12.67 478.09" class="st4"/>
				</g>
				<g id="shape1051-215" v:mID="1051" v:groupContext="shape" v:layerMember="0" transform="translate(62.3521,-124.779)">
					<title>Dynamic connector.777</title>
					<path d="M0 485.29 L-35.08 485.29 L-35.08 413.07" class="st4"/>
				</g>
				<g id="shape1052-218" v:mID="1052" v:groupContext="shape" v:layerMember="0" transform="translate(279.968,-230.865)">
					<title>Dynamic connector.778</title>
					<path d="M0 485.29 L25.97 485.29 L25.97 462.47" class="st4"/>
				</g>
				<g id="group1053-221" transform="translate(117.238,-110.393)" v:mID="1053" v:groupContext="group">
					<title>Tabelle.1053</title>
					<g id="group1054-222" v:mID="1054" v:groupContext="group">
						<title>Tabelle.1054</title>
						<g id="shape1055-223" v:mID="1055" v:groupContext="shape" transform="translate(4.32284,-4.32284)">
							<title>Kreis.3</title>
							<v:userDefs>
								<v:ud v:nameU="visVersion" v:val="VT0(15):26"/>
							</v:userDefs>
							<path d="M0 475.44 A9.85039 9.85039 0 1 1 19.7 475.44 A9.85039 9.85039 0 0 1 0 475.44 Z" class="st1"/>
						</g>
						<g id="group1056-225" v:mID="1056" v:groupContext="group">
							<title>Tabelle.1056</title>
							<g id="shape1057-226" v:mID="1057" v:groupContext="shape">
								<title>Kreis.18</title>
								<desc>V2</desc>
								<v:textBlock v:margins="rect(4,4,4,4)" v:tabSpace="42.5197"/>
								<v:textRect cx="14.1732" cy="471.113" width="28.35" height="28.3465"/>
								<rect x="0" y="456.94" width="28.3465" height="28.3465" class="st3"/>
								<text x="7.58" y="474.71" class="st2" v:langID="2055"><v:paragraph v:horizAlign="1"/><v:tabList/>V2</text>							</g>
						</g>
					</g>
					<g id="group1058-229" transform="translate(0,-32.6693)" v:mID="1058" v:groupContext="group">
						<title>Tabelle.1058</title>
						<g id="shape1059-230" v:mID="1059" v:groupContext="shape" transform="translate(4.32284,-4.32284)">
							<title>Kreis.3</title>
							<v:userDefs>
								<v:ud v:nameU="visVersion" v:val="VT0(15):26"/>
							</v:userDefs>
							<path d="M0 475.44 A9.85039 9.85039 0 1 1 19.7 475.44 A9.85039 9.85039 0 0 1 0 475.44 Z" class="st1"/>
						</g>
						<g id="group1060-232" v:mID="1060" v:groupContext="group">
							<title>Tabelle.1060</title>
							<g id="shape1061-233" v:mID="1061" v:groupContext="shape">
								<title>Kreis.18</title>
								<desc>V1</desc>
								<v:textBlock v:margins="rect(4,4,4,4)" v:tabSpace="42.5197"/>
								<v:textRect cx="14.1732" cy="471.113" width="28.35" height="28.3465"/>
								<rect x="0" y="456.94" width="28.3465" height="28.3465" class="st3"/>
								<text x="7.58" y="474.71" class="st2" v:langID="2055"><v:paragraph v:horizAlign="1"/><v:tabList/>V1</text>							</g>
						</g>
					</g>
					<g id="shape1062-236" v:mID="1062" v:groupContext="shape" transform="translate(499.459,448.294) rotate(90)">
						<title>Tabelle.1062</title>
						<path d="M0 485.29 L12.97 485.29" class="st5"/>
					</g>
				</g>
				<g id="shape1063-239" v:mID="1063" v:groupContext="shape" v:layerMember="0" transform="translate(261.444,-230.865)">
					<title>Dynamic connector.780</title>
					<path d="M-1.18 485.29 L-13 485.29 L-13 549.07" class="st4"/>
				</g>
				<g id="group1064-242" transform="translate(176.092,-40.1102)" v:mID="1064" v:groupContext="group">
					<title>Tabelle.1064</title>
					<g id="shape1065-243" v:mID="1065" v:groupContext="shape" transform="translate(4.32284,-4.32284)">
						<title>Kreis.3</title>
						<v:userDefs>
							<v:ud v:nameU="visVersion" v:val="VT0(15):26"/>
						</v:userDefs>
						<path d="M0 475.44 A9.85039 9.85039 0 1 1 19.7 475.44 A9.85039 9.85039 0 0 1 0 475.44 Z" class="st1"/>
					</g>
					<g id="group1066-245" v:mID="1066" v:groupContext="group">
						<title>Tabelle.1066</title>
						<g id="shape1067-246" v:mID="1067" v:groupContext="shape">
							<title>Kreis.18</title>
							<desc>X1</desc>
							<v:textBlock v:margins="rect(4,4,4,4)" v:tabSpace="42.5197"/>
							<v:textRect cx="14.1732" cy="471.113" width="28.35" height="28.3465"/>
							<rect x="0" y="456.94" width="28.3465" height="28.3465" class="st3"/>
							<text x="7.83" y="474.71" class="st2" v:langID="2055"><v:paragraph v:horizAlign="1"/><v:tabList/>X1</text>						</g>
					</g>
				</g>
				<g id="group1068-249" transform="translate(208.124,-40.1102)" v:mID="1068" v:groupContext="group">
					<title>Tabelle.1068</title>
					<g id="shape1069-250" v:mID="1069" v:groupContext="shape" transform="translate(4.32284,-4.32284)">
						<title>Kreis.3</title>
						<v:userDefs>
							<v:ud v:nameU="visVersion" v:val="VT0(15):26"/>
						</v:userDefs>
						<path d="M0 475.44 A9.85039 9.85039 0 1 1 19.7 475.44 A9.85039 9.85039 0 0 1 0 475.44 Z" class="st1"/>
					</g>
					<g id="group1070-252" v:mID="1070" v:groupContext="group">
						<title>Tabelle.1070</title>
						<g id="shape1071-253" v:mID="1071" v:groupContext="shape">
							<title>Kreis.18</title>
							<desc>X2</desc>
							<v:textBlock v:margins="rect(4,4,4,4)" v:tabSpace="42.5197"/>
							<v:textRect cx="14.1732" cy="471.113" width="28.35" height="28.3465"/>
							<rect x="0" y="456.94" width="28.3465" height="28.3465" class="st3"/>
							<text x="7.83" y="474.71" class="st2" v:langID="2055"><v:paragraph v:horizAlign="1"/><v:tabList/>X2</text>						</g>
					</g>
				</g>
				<g id="shape1072-256" v:mID="1072" v:groupContext="shape" transform="translate(200.116,-54.2835)">
					<title>Tabelle.1072</title>
					<path d="M0 485.29 L12.33 485.29" class="st5"/>
				</g>
				<g id="group1073-259" transform="translate(239.872,-72.1959)" v:mID="1073" v:groupContext="group">
					<title>Tabelle.1073</title>
					<g id="shape1074-260" v:mID="1074" v:groupContext="shape" transform="translate(4.32284,-4.32284)">
						<title>Kreis.3</title>
						<v:userDefs>
							<v:ud v:nameU="visVersion" v:val="VT0(15):26"/>
						</v:userDefs>
						<path d="M0 475.44 A9.85039 9.85039 0 1 1 19.7 475.44 A9.85039 9.85039 0 0 1 0 475.44 Z" class="st1"/>
					</g>
					<g id="group1075-262" v:mID="1075" v:groupContext="group">
						<title>Tabelle.1075</title>
						<g id="shape1076-263" v:mID="1076" v:groupContext="shape">
							<title>Kreis.18</title>
							<desc>Ts</desc>
							<v:textBlock v:margins="rect(4,4,4,4)" v:tabSpace="42.5197"/>
							<v:textRect cx="14.1732" cy="471.113" width="28.35" height="28.3465"/>
							<rect x="0" y="456.94" width="28.3465" height="28.3465" class="st3"/>
							<text x="8.81" y="474.71" class="st2" v:langID="2055"><v:paragraph v:horizAlign="1"/><v:tabList/>Ts</text>						</g>
					</g>
				</g>
				<g id="group1077-266" transform="translate(275.305,-41.0148)" v:mID="1077" v:groupContext="group">
					<title>Tabelle.1077</title>
					<g id="group1078-267" v:mID="1078" v:groupContext="group">
						<title>Tabelle.1078</title>
						<g id="shape1079-268" v:mID="1079" v:groupContext="shape" transform="translate(4.32284,-4.32284)">
							<title>Kreis.3</title>
							<v:userDefs>
								<v:ud v:nameU="visVersion" v:val="VT0(15):26"/>
							</v:userDefs>
							<path d="M0 475.44 A9.85039 9.85039 0 1 1 19.7 475.44 A9.85039 9.85039 0 0 1 0 475.44 Z" class="st1"/>
						</g>
						<g id="group1080-270" v:mID="1080" v:groupContext="group">
							<title>Tabelle.1080</title>
							<g id="shape1081-271" v:mID="1081" v:groupContext="shape">
								<title>Kreis.18</title>
								<desc>St</desc>
								<v:textBlock v:margins="rect(4,4,4,4)" v:tabSpace="42.5197"/>
								<v:textRect cx="14.1732" cy="471.113" width="28.35" height="28.3465"/>
								<rect x="0" y="456.94" width="28.3465" height="28.3465" class="st3"/>
								<text x="9.26" y="474.71" class="st2" v:langID="2055"><v:paragraph v:horizAlign="1"/><v:tabList/>St</text>							</g>
						</g>
					</g>
					<g id="group1082-274" transform="translate(31.1811,0)" v:mID="1082" v:groupContext="group">
						<title>Tabelle.1082</title>
						<g id="shape1083-275" v:mID="1083" v:groupContext="shape" transform="translate(4.32284,-4.32284)">
							<title>Kreis.3</title>
							<v:userDefs>
								<v:ud v:nameU="visVersion" v:val="VT0(15):26"/>
							</v:userDefs>
							<path d="M0 475.44 A9.85039 9.85039 0 1 1 19.7 475.44 A9.85039 9.85039 0 0 1 0 475.44 Z" class="st1"/>
						</g>
						<g id="group1084-277" v:mID="1084" v:groupContext="group">
							<title>Tabelle.1084</title>
							<g id="shape1085-278" v:mID="1085" v:groupContext="shape">
								<title>Kreis.18</title>
								<desc>Ts</desc>
								<v:textBlock v:margins="rect(4,4,4,4)" v:tabSpace="42.5197"/>
								<v:textRect cx="14.1732" cy="471.113" width="28.35" height="28.3465"/>
								<rect x="0" y="456.94" width="28.3465" height="28.3465" class="st3"/>
								<text x="8.81" y="474.71" class="st2" v:langID="2055"><v:paragraph v:horizAlign="1"/><v:tabList/>Ts</text>							</g>
						</g>
					</g>
					<g id="shape1086-281" v:mID="1086" v:groupContext="shape" transform="translate(24.0236,-14.1732)">
						<title>Tabelle.1086</title>
						<path d="M0 485.29 L11.48 485.29" class="st5"/>
					</g>
				</g>
				<g id="shape1087-284" v:mID="1087" v:groupContext="shape" v:layerMember="0" transform="translate(222.297,-44.4331)">
					<title>Dynamic connector.816</title>
					<path d="M0 485.29 L0 504.37 L21.21 504.37" class="st4"/>
				</g>
				<g id="shape1088-287" v:mID="1088" v:groupContext="shape" v:layerMember="0" transform="translate(222.297,-64.1339)">
					<title>Dynamic connector.817</title>
					<path d="M0 485.29 L0 463.05 L21.9 463.05" class="st4"/>
				</g>
				<g id="shape1089-290" v:mID="1089" v:groupContext="shape" v:layerMember="0" transform="translate(190.265,-44.4331)">
					<title>Dynamic connector.820</title>
					<path d="M0 485.29 L0 504.18 L-28.35 504.18 L-28.35 405.15 L-49 405.15" class="st4"/>
				</g>
				<g id="shape1090-293" v:mID="1090" v:groupContext="shape" v:layerMember="0" transform="translate(197.352,-64.1339)">
					<title>Dynamic connector.821</title>
					<path d="M-7.09 485.29 L-7.09 295.74" class="st4"/>
				</g>
				<g id="group1091-296" transform="translate(310.738,-76.5188)" v:mID="1091" v:groupContext="group">
					<title>Tabelle.1091</title>
					<g id="shape1092-297" v:mID="1092" v:groupContext="shape">
						<title>Kreis.3</title>
						<desc>T</desc>
						<v:userDefs>
							<v:ud v:nameU="visVersion" v:val="VT0(15):26"/>
						</v:userDefs>
						<v:textBlock v:margins="rect(4,4,4,4)" v:tabSpace="42.5197"/>
						<v:textRect cx="9.85039" cy="475.436" width="17.24" height="14.7756"/>
						<path d="M0 475.44 A9.85039 9.85039 0 1 1 19.7 475.44 A9.85039 9.85039 0 0 1 0 475.44 Z" class="st1"/>
						<text x="6.88" y="479.04" class="st2" v:langID="2055"><v:paragraph v:horizAlign="1"/><v:tabList/>T</text>					</g>
				</g>
				<g id="group1093-300" transform="translate(310.809,-15.503)" v:mID="1093" v:groupContext="group">
					<title>Tabelle.1093</title>
					<g id="shape1094-301" v:mID="1094" v:groupContext="shape">
						<title>Kreis.3</title>
						<desc>T</desc>
						<v:userDefs>
							<v:ud v:nameU="visVersion" v:val="VT0(15):26"/>
						</v:userDefs>
						<v:textBlock v:margins="rect(4,4,4,4)" v:tabSpace="42.5197"/>
						<v:textRect cx="9.85039" cy="475.436" width="17.24" height="14.7756"/>
						<path d="M0 475.44 A9.85039 9.85039 0 1 1 19.7 475.44 A9.85039 9.85039 0 0 1 0 475.44 Z" class="st1"/>
						<text x="6.88" y="479.04" class="st2" v:langID="2055"><v:paragraph v:horizAlign="1"/><v:tabList/>T</text>					</g>
				</g>
				<g id="group1095-304" transform="translate(279.628,-76.5188)" v:mID="1095" v:groupContext="group">
					<title>Tabelle.1095</title>
					<g id="shape1096-305" v:mID="1096" v:groupContext="shape">
						<title>Kreis.3</title>
						<desc>J</desc>
						<v:userDefs>
							<v:ud v:nameU="visVersion" v:val="VT0(15):26"/>
						</v:userDefs>
						<v:textBlock v:margins="rect(4,4,4,4)" v:tabSpace="42.5197"/>
						<v:textRect cx="9.85039" cy="475.436" width="17.24" height="14.7756"/>
						<path d="M0 475.44 A9.85039 9.85039 0 1 1 19.7 475.44 A9.85039 9.85039 0 0 1 0 475.44 Z" class="st1"/>
						<text x="7.86" y="479.04" class="st2" v:langID="2055"><v:paragraph v:horizAlign="1"/><v:tabList/>J</text>					</g>
				</g>
				<g id="group1097-308" transform="translate(279.628,-15.503)" v:mID="1097" v:groupContext="group">
					<title>Tabelle.1097</title>
					<g id="shape1098-309" v:mID="1098" v:groupContext="shape">
						<title>Kreis.3</title>
						<desc>J</desc>
						<v:userDefs>
							<v:ud v:nameU="visVersion" v:val="VT0(15):26"/>
						</v:userDefs>
						<v:textBlock v:margins="rect(4,4,4,4)" v:tabSpace="42.5197"/>
						<v:textRect cx="9.85039" cy="475.436" width="17.24" height="14.7756"/>
						<path d="M0 475.44 A9.85039 9.85039 0 1 1 19.7 475.44 A9.85039 9.85039 0 0 1 0 475.44 Z" class="st1"/>
						<text x="7.86" y="479.04" class="st2" v:langID="2055"><v:paragraph v:horizAlign="1"/><v:tabList/>J</text>					</g>
				</g>
				<g id="shape1099-312" v:mID="1099" v:groupContext="shape" v:layerMember="0" transform="translate(263.212,-18.2668)">
					<title>Dynamic connector</title>
					<path d="M0 478.2 L16.42 478.2" class="st4"/>
				</g>
				<g id="shape1100-315" v:mID="1100" v:groupContext="shape" v:layerMember="0" transform="translate(282.391,-47.3574)">
					<title>Dynamic connector.833</title>
					<path d="M7.09 487.31 L7.09 497.44" class="st4"/>
				</g>
				<g id="shape1101-318" v:mID="1101" v:groupContext="shape" v:layerMember="0" transform="translate(297.982,-18.2668)">
					<title>Dynamic connector.834</title>
					<path d="M1.35 478.2 L12.83 478.2" class="st4"/>
				</g>
				<g id="shape1102-321" v:mID="1102" v:groupContext="shape" v:layerMember="0" transform="translate(312.12,-79.2825)">
					<title>Dynamic connector.835</title>
					<path d="M-1.38 478.2 L-12.79 478.2" class="st4"/>
				</g>
				<g id="shape1103-324" v:mID="1103" v:groupContext="shape" v:layerMember="0" transform="translate(279.628,-79.2825)">
					<title>Dynamic connector.836</title>
					<path d="M0 478.2 L-15.73 478.2" class="st4"/>
				</g>
				<g id="shape1104-327" v:mID="1104" v:groupContext="shape" v:layerMember="0" transform="translate(296.565,-77.8652)">
					<title>Dynamic connector.837</title>
					<path d="M-7.09 486.63 L-7.09 498.11" class="st4"/>
				</g>
			</g>
			<g id="shape1108-330" v:mID="1108" v:groupContext="shape" transform="translate(173.197,1.13687E-13)">
				<title>Tabelle.1108</title>
				<rect x="0" y="376.719" width="166.961" height="108.567" class="st7"/>
			</g>
			<g id="shape1109-332" v:mID="1109" v:groupContext="shape" transform="translate(234.412,-139.822)">
				<title>Tabelle.1109</title>
				<rect x="0" y="332.215" width="171.213" height="153.071" class="st7"/>
			</g>
			<g id="shape1110-334" v:mID="1110" v:groupContext="shape" transform="translate(6.39488E-14,-103.161)">
				<title>Tabelle.1110</title>
				<path d="M161.75 361.96 L161.75 295.55 L0 295.55 L0 485.29 L88.33 485.29 L88.33 361.96 L161.75 361.96 Z"
						class="st7"/>
			</g>
		</g>
	</g>
</svg>
