<?xml version="1.0" encoding="UTF-8" standalone="no"?>
<!DOCTYPE svg PUBLIC "-//W3C//DTD SVG 1.1//EN" "http://www.w3.org/Graphics/SVG/1.1/DTD/svg11.dtd">
<!-- Generiert durch Microsoft Visio, SVG Export ex1.svg Zeichenblatt-1 -->
<svg xmlns="http://www.w3.org/2000/svg" xmlns:xlink="http://www.w3.org/1999/xlink" xmlns:ev="http://www.w3.org/2001/xml-events"
		xmlns:v="http://schemas.microsoft.com/visio/2003/SVGExtensions/" width="4.04642in" height="1.80331in"
		viewBox="0 0 291.343 129.839" xml:space="preserve" color-interpolation-filters="sRGB" class="st6">
	<v:documentProperties v:langID="2055" v:metric="true" v:viewMarkup="false"/>

	<style type="text/css">
	<![CDATA[
		.st1 {stroke:#c05046;stroke-linecap:round;stroke-linejoin:round;stroke-width:3}
		.st2 {fill:#ffffff;stroke:#000000;stroke-linecap:round;stroke-linejoin:round;stroke-width:1.5}
		.st3 {stroke:#000000;stroke-linecap:round;stroke-linejoin:round;stroke-width:1.5}
		.st4 {fill:#000000;font-family:Calibri;font-size:0.833336em;font-weight:bold}
		.st5 {fill:#000000;stroke:#000000;stroke-linecap:round;stroke-linejoin:round;stroke-width:1.5}
		.st6 {fill:none;fill-rule:evenodd;font-size:12px;overflow:visible;stroke-linecap:square;stroke-miterlimit:3}
	]]>
	</style>

	<g v:mID="0" v:index="1" v:groupContext="foregroundPage">
		<title>Zeichenblatt-1</title>
		<v:pageProperties v:drawingScale="0.0393701" v:pageScale="0.0393701" v:drawingUnits="24" v:shadowOffsetX="8.50394"
				v:shadowOffsetY="-8.50394"/>
		<v:layer v:name="Connector" v:index="0"/>
		<g id="group958-1" transform="translate(0.75,-0.75)" v:mID="958" v:groupContext="group">
			<title>Tabelle.958</title>
			<g id="shape903-2" v:mID="903" v:groupContext="shape" transform="translate(14.1732,-77.9528)">
				<title>Tabelle.903</title>
				<path d="M0 129.84 L0 101.49 L257.95 101.49 L257.95 127.77" class="st1"/>
			</g>
			<g id="shape904-5" v:mID="904" v:groupContext="shape" transform="translate(14.1732,-7.08661)">
				<title>Tabelle.904</title>
				<path d="M0 100.78 L0 129.84 L257.95 129.84 L257.95 101.49" class="st1"/>
			</g>
			<g id="group905-8" transform="translate(-6.39488E-14,-36.1417)" v:mID="905" v:groupContext="group">
				<title>Tabelle.905</title>
				<g id="shape906-9" v:mID="906" v:groupContext="shape">
					<title>Tabelle.906</title>
					<rect x="0" y="88.0276" width="26.712" height="41.811" class="st2"/>
				</g>
				<g id="shape907-11" v:mID="907" v:groupContext="shape" transform="translate(0,-12.0068)">
					<title>Tabelle.907</title>
					<path d="M0 129.84 L26.71 129.84" class="st3"/>
				</g>
			</g>
			<g id="group908-14" transform="translate(195.591,-96.4488)" v:mID="908" v:groupContext="group">
				<title>Tabelle.908</title>
				<g id="shape909-15" v:mID="909" v:groupContext="shape">
					<title>Kreis.311</title>
					<v:userDefs>
						<v:ud v:nameU="visVersion" v:val="VT0(15):26"/>
					</v:userDefs>
					<path d="M0 119.99 A9.63779 9.85039 0 1 1 19.28 119.99 A9.63779 9.85039 0 0 1 0 119.99 Z" class="st2"/>
				</g>
				<g id="shape910-17" v:mID="910" v:groupContext="shape" transform="translate(-73.5302,210.791) rotate(-134.375)">
					<title>Tabelle.910</title>
					<path d="M0 129.84 L13.78 129.84" class="st3"/>
				</g>
				<g id="shape911-20" v:mID="911" v:groupContext="shape" transform="translate(112.081,210.791) rotate(134.375)">
					<title>Tabelle.911</title>
					<path d="M0 129.84 L13.78 129.84" class="st3"/>
				</g>
			</g>
			<g id="group912-23" transform="translate(36.8504,-94.9606)" v:mID="912" v:groupContext="group">
				<title>Tabelle.912</title>
				<g id="shape913-24" v:mID="913" v:groupContext="shape" transform="translate(0,-17.7166)">
					<title>Kreis.276</title>
					<desc>T</desc>
					<v:userDefs>
						<v:ud v:nameU="visVersion" v:val="VT0(15):26"/>
					</v:userDefs>
					<v:textBlock v:margins="rect(4,4,4,4)" v:tabSpace="42.5197"/>
					<v:textRect cx="7.08661" cy="122.752" width="12.41" height="10.6299"/>
					<path d="M0 122.75 A7.08661 7.08661 0 0 1 14.17 122.75 A7.08661 7.08661 0 1 1 0 122.75 Z" class="st2"/>
					<text x="4.89" y="125.75" class="st4" v:langID="2055"><v:paragraph v:horizAlign="1"/><v:tabList/>T</text>				</g>
				<g id="shape914-27" v:mID="914" v:groupContext="shape" transform="translate(-122.752,126.65) rotate(-90)">
					<title>Tabelle.914</title>
					<path d="M0 129.84 L14.53 129.84" class="st3"/>
				</g>
			</g>
			<g id="group915-30" transform="translate(232.441,-96.4488)" v:mID="915" v:groupContext="group">
				<title>Tabelle.915</title>
				<g id="shape916-31" v:mID="916" v:groupContext="shape" transform="translate(0,-17.7166)">
					<title>Kreis.276</title>
					<desc>T</desc>
					<v:userDefs>
						<v:ud v:nameU="visVersion" v:val="VT0(15):26"/>
					</v:userDefs>
					<v:textBlock v:margins="rect(4,4,4,4)" v:tabSpace="42.5197"/>
					<v:textRect cx="7.08661" cy="122.752" width="12.41" height="10.6299"/>
					<path d="M0 122.75 A7.08661 7.08661 0 0 1 14.17 122.75 A7.08661 7.08661 0 1 1 0 122.75 Z" class="st2"/>
					<text x="4.89" y="125.75" class="st4" v:langID="2055"><v:paragraph v:horizAlign="1"/><v:tabList/>T</text>				</g>
				<g id="shape917-34" v:mID="917" v:groupContext="shape" transform="translate(-122.752,126.65) rotate(-90)">
					<title>Tabelle.917</title>
					<path d="M0 129.84 L14.53 129.84" class="st3"/>
				</g>
			</g>
			<g id="shape922-37" v:mID="922" v:groupContext="shape" transform="translate(131.102,2.84217E-14)">
				<title>Kreis.57</title>
				<desc>F</desc>
				<v:userDefs>
					<v:ud v:nameU="visVersion" v:val="VT0(15):26"/>
				</v:userDefs>
				<v:textBlock v:margins="rect(4,4,4,4)" v:tabSpace="42.5197"/>
				<v:textRect cx="7.08661" cy="122.752" width="12.41" height="10.6299"/>
				<path d="M0 122.75 A7.08661 7.08661 0 0 1 14.17 122.75 A7.08661 7.08661 0 1 1 0 122.75 Z" class="st2"/>
				<text x="4.89" y="125.75" class="st4" v:langID="2055"><v:paragraph v:horizAlign="1"/><v:tabList/>F</text>			</g>
			<g id="shape923-40" v:mID="923" v:groupContext="shape" v:layerMember="0" transform="translate(279.213,-80.0197)">
				<title>Dynamic connector.654</title>
				<path d="M-7.09 129.84 L-7.09 174.43" class="st1"/>
			</g>
			<g id="group924-43" transform="translate(254.409,-42.5197)" v:mID="924" v:groupContext="group">
				<title>Tabelle.924</title>
				<g id="shape925-44" v:mID="925" v:groupContext="shape">
					<title>Kreis</title>
					<v:userDefs>
						<v:ud v:nameU="visVersion" v:val="VT0(15):26"/>
					</v:userDefs>
					<path d="M0 112.12 A17.7165 17.7165 0 1 1 35.43 112.12 A17.7165 17.7165 0 0 1 0 112.12 Z" class="st2"/>
				</g>
				<g id="shape926-46" v:mID="926" v:groupContext="shape" transform="translate(2.95276,-2.95276)">
					<title>Kreis.41</title>
					<v:userDefs>
						<v:ud v:nameU="visVersion" v:val="VT0(15):26"/>
					</v:userDefs>
					<path d="M0 115.07 A14.7638 14.7638 0 0 1 29.53 115.07 A14.7638 14.7638 0 1 1 0 115.07 Z" class="st2"/>
				</g>
			</g>
			<g id="shape951-48" v:mID="951" v:groupContext="shape" transform="translate(291.413,23.2929) rotate(90)">
				<title>Tabelle.951</title>
				<path d="M0 129.84 L99.46 129.84" class="st1"/>
			</g>
			<g id="group952-51" transform="translate(147.402,-92.3725)" v:mID="952" v:groupContext="group">
				<title>Tabelle.952</title>
				<g id="shape953-52" v:mID="953" v:groupContext="shape" transform="translate(7.08661,-8.52651E-14)">
					<title>Dreieck</title>
					<v:userDefs>
						<v:ud v:nameU="visVersion" v:val="VT0(15):26"/>
					</v:userDefs>
					<path d="M14.17 129.84 L7.09 115.67 L0 129.84 L14.17 129.84 Z" class="st5"/>
				</g>
				<g id="shape954-54" v:mID="954" v:groupContext="shape" transform="translate(129.839,108.579) rotate(90)">
					<title>Dreieck.268</title>
					<v:userDefs>
						<v:ud v:nameU="visVersion" v:val="VT0(15):26"/>
					</v:userDefs>
					<path d="M14.17 129.84 L7.09 115.67 L0 129.84 L14.17 129.84 Z" class="st5"/>
				</g>
				<g id="shape955-56" v:mID="955" v:groupContext="shape" transform="translate(-101.492,122.752) rotate(-90)">
					<title>Dreieck.269</title>
					<v:userDefs>
						<v:ud v:nameU="visVersion" v:val="VT0(15):26"/>
					</v:userDefs>
					<path d="M14.17 129.84 L7.09 115.67 L0 129.84 L14.17 129.84 Z" class="st2"/>
				</g>
				<g id="shape956-58" v:mID="956" v:groupContext="shape" transform="translate(-115.665,115.665) rotate(-90)">
					<title>Tabelle.956</title>
					<path d="M0 129.84 L10.63 129.84" class="st3"/>
				</g>
				<g id="shape957-61" v:mID="957" v:groupContext="shape" transform="translate(7.08661,-21.2598)">
					<title>Kreis.273</title>
					<v:userDefs>
						<v:ud v:nameU="visVersion" v:val="VT0(15):26"/>
					</v:userDefs>
					<path d="M0 122.75 A7.08661 7.08661 0 0 1 14.17 122.75 A7.08661 7.08661 0 1 1 0 122.75 Z" class="st2"/>
				</g>
			</g>
		</g>
	</g>
</svg>
